<?xml version="1.0" encoding="UTF-8" standalone="no"?>
<!-- Created with Inkscape (http://www.inkscape.org/) -->

<svg
   width="151.31866"
   height="151.0954"
   id="svg2"
   version="1.1"
   xmlns="http://www.w3.org/2000/svg"
   xmlns:svg="http://www.w3.org/2000/svg"
   xmlns:rdf="http://www.w3.org/1999/02/22-rdf-syntax-ns#"
   xmlns:cc="http://creativecommons.org/ns#"
   xmlns:dc="http://purl.org/dc/elements/1.1/">
  <defs
     id="defs4" />
  <metadata
     id="metadata7">
    <rdf:RDF>
      <cc:Work
         rdf:about="">
        <dc:format>image/svg+xml</dc:format>
        <dc:type
           rdf:resource="http://purl.org/dc/dcmitype/StillImage" />
      </cc:Work>
    </rdf:RDF>
  </metadata>
  <g
     id="layer1"
     transform="translate(-190.53165,-269.25006)">
    <path
       style="fill:#c6a899;fill-opacity:1;stroke:none;stroke-width:0.154896;stroke-opacity:1"
       d="m 191.02565,338.95068 c -0.82968,1.09853 -0.28369,2.58368 -0.4535,3.85817 -0.024,22.63592 -0.096,45.2725 0.0404,67.90808 0.009,2.058 -0.069,4.26598 1.15458,6.04339 1.31727,2.15684 3.77538,3.6938 6.35435,3.47517 17.9715,0.19241 35.94521,0.0674 53.9176,0.097 27.92508,-0.0122 55.85016,-0.0267 83.77524,-0.0399 2.67762,-0.76291 5.17672,-2.96177 5.71995,-5.77743 0.42928,-5.07099 0.21562,-10.17446 0.29523,-15.25903 0.0134,-18.02527 0.004,-36.05055 0.009,-54.07582 -0.0534,-1.23567 -1.57378,-1.62568 -2.43792,-0.88259 -6.34952,3.13606 -13.3312,4.93839 -20.23835,6.61833 -8.04495,1.92039 -16.20843,3.20795 -24.38268,4.46477 -0.9928,0.073 -2.29582,0.55742 -2.10287,1.78635 2.37669,8.4911 5.14927,16.86896 7.62214,25.32385 0.65266,2.44344 1.57714,4.84488 1.91725,7.3561 -0.11407,1.69165 -1.84836,2.94915 -3.40165,3.1365 -21.06835,-0.0391 -42.13806,0.0714 -63.20543,-0.14279 -1.68179,-0.12938 -3.8619,0.28369 -4.92717,-1.40814 -0.72877,-1.44626 -0.72147,-3.19971 -0.59518,-4.75591 3.55627,-10.30991 7.19307,-20.59329 10.67278,-30.92878 0.20012,-1.16825 -0.96773,-1.72418 -1.94965,-1.77166 -12.91194,-2.52098 -25.75579,-5.84593 -37.92085,-10.97365 -2.90405,-1.20978 -5.74292,-2.72566 -8.49294,-4.28353 -0.52112,-0.1325 -0.9187,-0.0623 -1.36986,0.23144 z"
       id="path40" />
    <path
       style="fill:none;stroke:#c6a899;stroke-opacity:1"
       d="m 240.30582,354.97696 c 0,0 -32.18951,-5.48178 -48.63484,-15.9354"
       id="path4" />
    <path
       style="fill:#eeeae7;fill-opacity:1;stroke:none;stroke-width:0.154896;stroke-opacity:1"
       d="m 222.22925,269.25006 c -8.51149,0.0531 -17.02841,-0.0925 -25.5363,0.16912 -2.62485,0.46037 -4.8952,2.56066 -5.73235,5.07131 -0.55049,3.2467 -0.29973,6.57243 -0.40265,9.85281 -0.042,18.05336 -0.009,36.10683 -0.0197,54.16024 0.14855,1.3722 1.77039,1.39746 2.69112,2.07383 9.82757,5.32232 20.58282,8.65729 31.35386,11.47349 5.07445,1.26415 10.18242,2.42977 15.33073,3.34205 1.54082,-0.0994 1.54431,-1.97872 2.06989,-3.0612 1.87029,-5.34143 3.7268,-10.6877 5.57021,-16.03846 5.06778,5.39678 11.57497,9.54751 18.82648,11.2381 7.40657,1.82302 15.33182,1.22553 22.4931,-1.32485 0.70183,-0.17763 0.55246,1.40124 0.92042,1.90258 0.88463,2.61616 1.49035,5.34052 2.55509,7.88859 0.58235,1.1805 2.00568,0.71951 2.97339,0.53906 12.70108,-2.02652 25.54515,-4.09577 37.76306,-8.30374 2.63422,-0.88971 5.15273,-2.07044 7.68448,-3.2069 -0.0199,0.0732 1.15005,-0.67359 0.93391,-1.37439 0.22282,-16.31194 0.12655,-32.62733 0.12053,-48.94066 -0.0509,-6.43012 0.0278,-12.86559 -0.17408,-19.29208 -0.5927,-2.95654 -3.05575,-5.48901 -5.99101,-6.11635 -37.81007,-0.0172 -75.62013,-0.0532 -113.4302,-0.0525 z m 30.54802,13.69616 c 8.19754,7.66535 16.24769,15.48905 24.5084,23.08608 0.69445,0.74307 1.87536,1.5849 2.80436,0.70704 4.36352,-3.96556 8.49057,-8.18175 12.70077,-12.30301 1.24293,-1.34244 0.47929,-3.52759 1.82433,-4.84351 1.33371,-1.45824 3.7694,-1.35661 5.37536,-0.45017 1.07184,0.70759 1.71794,1.95378 1.52962,3.23678 0.056,1.12076 0.0838,2.37822 -0.86435,3.1684 -1.47499,1.51476 -4.04899,0.39665 -5.55658,1.90927 -4.22058,3.9657 -8.44098,7.9572 -12.53157,12.04413 -0.93147,1.23038 0.63648,2.2348 1.40619,3.0278 6.69622,6.4877 13.52675,12.83634 20.17679,19.37148 -3.76151,4.13266 -8.55408,7.39774 -13.77534,9.48623 -4.9107,1.93402 -10.25585,2.76477 -15.50417,2.34725 -8.55206,-0.84244 -16.50385,-4.93185 -23.01967,-10.35731 -4.93911,-4.1061 -8.54481,-9.82037 -9.8461,-16.1328 -0.50907,-2.90653 -0.20142,-5.88577 -0.27003,-8.82274 0.0469,-3.48947 1.18627,-6.85359 2.21718,-10.15326 1.9367,-5.65865 4.7806,-10.99056 8.26695,-15.84382 0.18595,0.17405 0.37191,0.34811 0.55786,0.52216 z"
       id="path41" />
    <path
       style="fill:none;stroke:#c6a899;stroke-opacity:1"
       d="m 293.21135,356.25179 c 0,0 33.91958,-4.03572 48.00648,-12.1309"
       id="path5" />
    <path
       style="fill:#9c7769;fill-opacity:1;stroke:#9e796a;stroke-opacity:1"
       d="m 247.26563,334.97596 -17.93871,51.74279 c 0,0 -0.99158,6.3101 3.51563,6.76082 4.50721,0.45072 66.34615,0.27043 66.34615,0.27043 0,0 4.59736,-1.35216 3.69592,-4.95793 -0.90145,-3.60577 -13.25121,-43.62981 -13.25121,-43.62981 0,0 -23.70793,10.63702 -42.36778,-10.1863 z"
       id="path2" />
    <path
       style="fill:#ffffff;fill-opacity:1;stroke:#9e796a;stroke-opacity:1"
       d="m 250.42067,345.2524 -15.14423,41.55649 c 0,0 -0.36057,1.53246 0.72116,1.17188 1.08173,-0.36058 58.95432,0.0901 58.95432,0.0901 0,0 1.08173,-0.0901 0.8113,-1.17187 -0.27043,-1.08173 -10.45673,-34.70553 -10.45673,-34.70553 0,0 -18.56971,5.76923 -34.88582,-6.94111 z"
       id="path3" />
    <g
       id="g32"
       style="fill:#9d786a;fill-opacity:1">
      <path
         style="fill:#9d786a;fill-opacity:1;stroke:#9e796a;stroke-opacity:1"
         d="m 252.13341,281.43029 53.00481,50.48077 c 0,0 -21.0036,25.06009 -50.48077,4.50721 -29.47716,-20.55289 -2.52404,-54.98798 -2.52404,-54.98798 z"
         id="path6" />
      <g
         id="g31"
         style="fill:#9d786a;fill-opacity:1">
        <path
           style="fill:#9d786a;fill-opacity:1;stroke:#9e796a;stroke-opacity:1"
           d="m 293.14904,293.32933 -13.88221,13.70192 v 0"
           id="path7" />
        <path
           style="fill:#9d786a;fill-opacity:1;stroke:#9e796a;stroke-opacity:1"
           d="m 296.57452,296.84495 -14.0625,13.34135"
           id="path8" />
        <path
           style="fill:#9d786a;fill-opacity:1;stroke:#9e796a;stroke-opacity:1"
           d="m 292.87861,293.50962 c 0.0451,-0.90145 0.0901,-1.80289 0.29297,-2.60668 0.20283,-0.8038 0.56339,-1.50991 1.11178,-1.9982 0.54839,-0.48828 1.28455,-0.75871 1.91557,-0.90894 0.63101,-0.15023 1.15684,-0.18027 1.75029,-0.15021 0.59345,0.03 1.25451,0.1202 1.81791,0.37561 0.56341,0.25541 1.02914,0.67608 1.40475,1.11178 0.3756,0.4357 0.66105,0.88641 0.84134,1.35216 0.18029,0.46575 0.25541,0.94651 0.29297,1.49489 0.0376,0.54839 0.0376,1.16436 -0.0601,1.66767 -0.0977,0.50331 -0.29297,0.89393 -0.48828,1.26202 -0.19531,0.36809 -0.39062,0.71364 -0.6911,1.01412 -0.30049,0.30048 -0.70613,0.55589 -1.13432,0.70613 -0.42819,0.15024 -0.8789,0.19531 -1.51257,0.20371 -0.63368,0.008 -1.45027,-0.0199 -2.26689,-0.0481"
           id="path13" />
      </g>
    </g>
    <rect
       style="fill:none;stroke:#c6a899;stroke-opacity:1"
       id="rect14"
       width="149.81972"
       height="149.81972"
       x="191.28606"
       y="269.89182"
       rx="7.0086598" />
    <path
       style="fill:#9d786a;fill-opacity:1;stroke:#9e796a;stroke-width:0.154896;stroke-opacity:1"
       d="m 273.85548,344.69977 c -5.60883,-0.70444 -11.51654,-2.92938 -17.15412,-6.46054 -9.77102,-6.12018 -14.96624,-13.68428 -16.08125,-23.41385 -0.25397,-2.2161 -0.10378,-6.66525 0.30588,-9.0614 1.09206,-6.38759 3.59843,-12.93338 7.38397,-19.2845 1.56216,-2.62089 3.61638,-5.60587 3.81281,-5.54039 0.0751,0.025 6.13682,5.7603 13.47041,12.74501 7.33358,6.98471 13.39681,12.72328 13.47385,12.75238 0.077,0.0291 3.12512,-2.87964 6.77353,-6.46388 l 6.63347,-6.51681 0.0947,-1.20344 c 0.13417,-1.70469 0.48454,-2.60301 1.35462,-3.47309 1.97538,-1.97538 5.89344,-1.78299 7.59771,0.37307 0.86496,1.09426 1.08691,1.70043 1.1765,3.21318 0.0646,1.09019 0.022,1.4644 -0.24725,2.17595 -0.80765,2.13407 -1.80335,2.80117 -4.37373,2.93032 l -1.64645,0.0827 -6.67919,6.33186 c -3.67355,3.48253 -6.67919,6.35483 -6.67919,6.3829 0,0.0281 5.09533,4.90748 11.32295,10.84315 l 11.32295,10.79213 -1.5258,1.54104 c -5.20144,5.25342 -12.42897,9.2821 -19.26135,10.73643 -3.07734,0.65504 -8.10896,0.89026 -11.07504,0.51774 z m 15.32648,-41.39661 c 3.41221,-3.22769 6.35748,-6.01582 6.54505,-6.19583 l 0.34103,-0.32729 -1.35498,-1.45817 c -1.07423,-1.15603 -1.40707,-1.42883 -1.6064,-1.31661 -0.13828,0.0778 -3.19013,3.06205 -6.78188,6.63154 l -6.53046,6.49 1.28263,1.28933 c 1.24287,1.24936 1.29222,1.28106 1.59182,1.02245 0.17005,-0.14679 3.10099,-2.90773 6.51319,-6.13542 z"
       id="path32" />
    <path
       style="fill:#9d786a;fill-opacity:1;stroke:#9e796a;stroke-width:0.154896;stroke-opacity:1"
       d="m 281.21011,308.23715 -1.1588,-1.16882 6.50562,-6.41396 c 3.57808,-3.52768 6.57718,-6.4176 6.66466,-6.42204 0.14684,-0.007 1.9476,1.76557 2.3658,2.32937 0.1556,0.20977 -0.79765,1.17561 -6.4208,6.50562 -3.63194,3.44259 -6.64721,6.27713 -6.7006,6.29896 -0.0534,0.0218 -0.61853,-0.48628 -1.25588,-1.12913 z"
       id="path33" />
    <path
       style="fill:#9d786a;fill-opacity:1;stroke:#9e796a;stroke-width:0.154896;stroke-opacity:1"
       d="m 273.31335,344.62457 c -5.76002,-0.77451 -11.88432,-3.23041 -17.73555,-7.1121 -2.83536,-1.88097 -4.42483,-3.16393 -6.50866,-5.25355 -4.45132,-4.4637 -7.08757,-9.46599 -8.22347,-15.60406 -0.3764,-2.03395 -0.45352,-6.61283 -0.15474,-9.18711 0.70647,-6.08698 3.09622,-13.00263 6.74414,-19.51676 1.01491,-1.81232 3.54957,-5.75562 4.3269,-6.73157 l 0.30333,-0.38084 0.74943,0.68088 c 0.82128,0.74617 5.60116,5.28125 8.41676,7.9857 5.00079,4.80338 17.27559,16.45018 17.59822,16.69787 l 0.37013,0.28416 4.37557,-4.31195 c 2.40657,-2.37156 5.3937,-5.30939 6.63808,-6.5285 l 2.26251,-2.21655 0.097,-1.25729 c 0.0533,-0.6915 0.15044,-1.297 0.21582,-1.34554 0.0654,-0.0485 0.13856,-0.2625 0.16262,-0.47548 0.0647,-0.57259 0.7263,-1.48772 1.45958,-2.0189 2.02273,-1.46526 5.4692,-1.14019 7.0112,0.66129 1.01936,1.19089 1.24389,1.85535 1.24389,3.68103 0,1.55953 -0.0219,1.66681 -0.53269,2.60896 -0.89158,1.64451 -1.96729,2.19281 -4.30204,2.19281 h -1.30035 l -3.05084,2.89568 c -1.67796,1.59263 -4.33996,4.11936 -5.91555,5.61497 -1.57559,1.4956 -3.23668,3.06979 -3.69131,3.49819 l -0.82658,0.77891 4.31088,4.09982 c 2.37099,2.2549 5.11194,4.86677 6.091,5.80415 0.97906,0.93739 2.47767,2.36836 3.33026,3.17994 3.79032,3.60806 4.75624,4.53229 6.45559,6.17698 0.99415,0.96217 1.95257,1.85097 2.12982,1.97513 0.17725,0.12415 0.32228,0.27736 0.32228,0.34047 0,0.18642 -3.23902,3.33901 -4.4026,4.28513 -5.71546,4.6473 -12.44925,7.65869 -19.0333,8.51183 -2.26236,0.29315 -6.70596,0.28634 -8.93729,-0.0137 z m 9.91332,-35.72291 c 1.29188,-1.212 6.717,-6.35806 9.5065,-9.01749 1.52269,-1.45169 2.86447,-2.69519 2.98174,-2.76331 0.37611,-0.21852 0.22888,-0.46846 -1.10946,-1.8835 l -1.31257,-1.38778 -0.88293,0.84565 c -0.48562,0.4651 -3.52072,3.45887 -6.74468,6.65281 l -5.86175,5.80716 1.22629,1.20187 c 0.67446,0.66102 1.28784,1.20111 1.36306,1.20019 0.0752,-9.2e-4 0.45043,-0.29594 0.8338,-0.6556 z"
       id="path34" />
    <path
       style="fill:#9d786a;fill-opacity:1;stroke:#9e796a;stroke-width:0.154896;stroke-opacity:1"
       d="m 281.27889,308.14357 -1.07269,-1.09059 6.11838,-6.03263 c 3.36511,-3.31795 6.31018,-6.17439 6.54459,-6.34764 l 0.42622,-0.31501 0.94377,0.9002 c 1.45669,1.38945 1.45818,1.279 -0.0377,2.79401 -1.55714,1.57702 -11.39624,10.91945 -11.66226,11.07356 -0.11489,0.0666 -0.60335,-0.314 -1.26028,-0.9819 z"
       id="path35" />
    <path
       style="fill:#9d786a;fill-opacity:1;stroke:#9e796a;stroke-width:0.154896;stroke-opacity:1"
       d="m 281.08967,308.11925 c -0.84097,-0.84852 -1.03696,-0.97384 -1.43229,-0.91582 -0.41642,0.0611 -0.458,0.027 -0.45802,-0.37632 -2e-5,-0.37929 0.95498,-1.3859 6.59287,-6.94916 l 6.59289,-6.50562 0.13662,-1.23916 c 0.22976,-2.08381 0.77434,-3.15908 1.99079,-3.93077 0.93171,-0.59106 1.70407,-0.79162 3.0526,-0.79268 1.74748,-10e-4 2.59536,0.33043 3.72122,1.4563 1.1639,1.1639 1.45793,1.96247 1.45566,3.95357 -0.002,1.49254 -0.33949,2.44914 -1.21822,3.44996 -0.6936,0.78997 -1.39531,1.06513 -3.09557,1.21387 -0.82131,0.0718 -1.80013,0.18011 -2.17516,0.2406 l -0.68187,0.10997 0.10194,-0.6375 0.10194,-0.63751 -0.73668,0.7911 c -0.40518,0.43511 -0.7227,0.84045 -0.70561,0.90077 0.0171,0.0603 -0.22688,0.34653 -0.54214,0.63604 l -0.5732,0.52637 0.53978,-0.61958 c 0.29689,-0.34077 -0.0342,-0.0636 -0.73575,0.61595 -0.70155,0.67954 -1.27554,1.26853 -1.27554,1.30887 0,0.0403 0.0756,-0.002 0.16796,-0.0946 0.26333,-0.26334 0.76142,-0.0555 0.76133,0.31768 -1.1e-4,0.42862 -1.86056,2.11175 -2.33423,2.11175 -0.18822,0 -0.42138,-0.10827 -0.51814,-0.2406 -0.15345,-0.20985 -0.22463,-0.1851 -0.55689,0.19362 -0.20953,0.23882 -0.289,0.35515 -0.1766,0.25852 0.31434,-0.27026 0.79782,-0.0726 0.79782,0.32611 0,0.47324 -1.99484,2.25047 -2.52602,2.25047 -0.44224,0 -0.63106,-0.32952 -0.36617,-0.639 0.0998,-0.11663 -0.0799,0.028 -0.39934,0.3213 -0.31947,0.29335 -0.58086,0.56849 -0.58086,0.61141 0,0.0429 0.0756,0.002 0.16796,-0.0899 0.27406,-0.27406 0.76141,-0.0541 0.76141,0.34358 0,0.49035 -1.63034,1.92577 -2.19069,1.92877 -0.464,0.002 -0.66245,-0.32013 -0.39198,-0.63724 0.0997,-0.11687 -0.14973,0.0983 -0.55424,0.47806 -0.40451,0.37981 -0.73548,0.72457 -0.73548,0.76614 0,0.0416 0.26139,-0.16462 0.58086,-0.45821 l 0.58086,-0.5338 -0.50451,0.55064 c -0.38487,0.42007 -0.64209,0.55876 -1.08476,0.58488 -0.52523,0.031 -0.67263,-0.059 -1.55455,-0.94879 z m 12.20732,-13.89499 c 0.0941,0 0.128,0.0697 0.0753,0.15489 -0.0526,0.0852 -0.007,0.1549 0.10117,0.1549 0.10829,0 0.5132,0.29514 0.89979,0.65587 0.47436,0.44262 0.42,0.36173 -0.16718,-0.24881 -0.73647,-0.76576 -0.91485,-0.87992 -1.16171,-0.74349 -0.16041,0.0887 -1.19779,1.08632 -2.30529,2.21706 l -2.01365,2.05589 2.20023,-2.12316 c 1.21012,-1.16773 2.27721,-2.12315 2.3713,-2.12315 z m -1.08637,6.13734 c 0,-0.0322 0.12198,-0.15414 0.27106,-0.27106 0.24568,-0.19267 0.25116,-0.1872 0.0585,0.0585 -0.20235,0.25801 -0.32954,0.34007 -0.32954,0.21258 z"
       id="path36" />
    <path
       style="fill:#9d786a;fill-opacity:1;stroke:#9e796a;stroke-width:0.154896;stroke-opacity:1"
       d="m 275.32699,344.87388 c -5.54186,-0.37268 -11.55253,-2.37088 -17.29389,-5.74923 -9.91227,-5.83261 -15.4768,-13.02109 -17.19114,-22.20818 -0.40899,-2.1918 -0.41078,-8.87814 -0.003,-11.15249 1.39572,-7.78412 4.67453,-15.53501 9.66521,-22.84797 1.02867,-1.50733 1.2772,-1.78043 1.62028,-1.78043 0.32434,0 2.51841,2.01004 10.99,10.06821 5.82162,5.53752 11.75856,11.18347 13.1932,12.54655 1.43463,1.36308 2.69555,2.47833 2.80202,2.47833 0.10648,0 3.12335,-2.89268 6.70417,-6.42817 l 6.51057,-6.42817 0.17436,-1.39029 c 0.27562,-2.19765 0.96538,-3.32562 2.51798,-4.1177 1.27214,-0.649 3.80118,-0.65182 5.06163,-0.006 0.73781,0.37824 1.65503,1.29851 2.17401,2.18125 0.35328,0.60091 0.41644,0.90807 0.46688,2.27084 0.0766,2.06967 -0.18654,2.89885 -1.27427,4.01524 -0.89879,0.92247 -1.26509,1.05751 -3.50327,1.29153 -0.80933,0.0846 -1.7087,0.20166 -1.9986,0.26008 l -0.52709,0.10623 0.0934,-0.57577 c 0.081,-0.49897 0.0625,-0.55012 -0.13826,-0.38348 -0.12743,0.10576 -0.19672,0.28344 -0.15396,0.39486 0.0428,0.11141 3e-4,0.25042 -0.0943,0.3089 -0.11361,0.0702 -0.12858,0.0324 -0.0441,-0.11121 0.0704,-0.11965 -0.0234,-0.0848 -0.20841,0.0775 -0.18503,0.16229 -0.33642,0.33307 -0.33642,0.3795 0,0.0464 0.0756,0.009 0.16796,-0.0835 0.24549,-0.24549 0.76141,-0.0597 0.76141,0.27422 0,0.30962 -1.52596,1.82419 -8.09329,8.03286 -2.2789,2.15445 -4.13748,3.96127 -4.13017,4.01515 0.007,0.0539 5.06079,4.90183 11.22994,10.7732 6.16915,5.87138 11.21664,10.7604 11.21664,10.86449 0,0.10409 -0.76598,0.92325 -1.70218,1.82035 -6.98143,6.68988 -15.17833,10.51125 -23.80565,11.09813 -2.47042,0.16805 -2.42512,0.16801 -4.85172,0.005 z m 7.11152,-35.50857 c -0.0359,-0.0213 -0.30893,-0.24784 -0.60668,-0.50341 l -0.54136,-0.46469 0.45495,0.50341 c 0.25021,0.27688 0.52322,0.50341 0.60667,0.50341 0.0835,0 0.12234,-0.0174 0.0864,-0.0387 z"
       id="path37" />
    <path
       style="fill:#9d786a;fill-opacity:1;stroke:#9e796a;stroke-width:0.154896;stroke-opacity:1"
       d="m 275.32699,344.94002 c -0.29817,-0.0349 -1.20075,-0.14028 -2.00573,-0.23415 -5.38566,-0.62806 -11.85273,-3.20503 -17.6911,-7.04949 -8.20165,-5.40063 -12.9171,-11.83284 -14.72164,-20.08141 -0.3151,-1.44029 -0.34756,-2.00538 -0.34927,-6.07985 -0.002,-3.65092 0.0496,-4.76749 0.27289,-5.96348 1.2764,-6.83533 4.05552,-13.79357 8.08993,-20.25519 1.92283,-3.07966 2.78556,-4.21832 3.19611,-4.21832 0.20128,0 0.74725,0.38972 1.35623,0.9681 10.67473,10.13827 24.54403,23.26557 24.99037,23.6534 0.54177,0.47074 0.60603,0.48984 0.92938,0.27612 0.19104,-0.12628 3.17097,-3.01679 6.62205,-6.42337 l 6.2747,-6.19378 0.18002,-1.32017 c 0.40489,-2.96929 1.66948,-4.31298 4.40564,-4.68119 0.88015,-0.11845 2.40641,0.11357 3.19073,0.48506 0.83065,0.39342 1.85762,1.47487 2.29723,2.41908 0.32288,0.6935 0.37596,1.03715 0.37596,2.43392 0,1.84979 -0.30174,2.7394 -1.25591,3.70276 -0.76045,0.76777 -1.55055,1.05569 -3.46005,1.26085 l -1.69853,0.1825 -1.26144,1.18317 c -1.8573,1.74206 -7.59441,7.23134 -9.84334,9.41813 l -1.95528,1.90127 7.91877,7.55503 c 13.81296,13.1785 14.34693,13.70212 14.34693,14.06881 0,0.40904 -2.8351,3.20352 -4.80298,4.73416 -5.55129,4.31789 -11.54483,6.98363 -17.88923,7.95659 -1.50859,0.23136 -6.42589,0.42867 -7.51244,0.30145 z"
       id="path38" />
    <path
       style="fill:#c6a899;fill-opacity:1;stroke:none;stroke-width:4.9;stroke-dasharray:none;stroke-opacity:1"
       d="m 301.93032,354.36249 c -0.37194,0.0571 -0.7483,0.0387 -1.123,0.0387 -0.0156,0 -0.24015,0 -0.23234,0 0.28398,0 0.56795,0 0.85193,0 0.0382,0 0.26194,0.009 0.19362,0.0774 -0.0156,0.0156 -0.22542,0.0192 -0.27107,0.0387 -0.0808,0.0346 -0.50341,0.23659 -0.50341,0.30979"
       id="path43" />
    <path
       style="fill:#c6a899;fill-opacity:1;stroke:#c6a899;stroke-width:0;stroke-dasharray:none;stroke-opacity:1"
       d="m 293.56595,356.29869 0.19362,0.69703 5.96348,-0.77448 -0.0774,-0.85193 z"
       id="path45" />
    <path
       style="fill:#c6a899;fill-opacity:1;stroke:#c6a899;stroke-width:0;stroke-dasharray:none;stroke-opacity:1"
       d="m 340.69295,344.48789 0.30979,0.9681 -2.51705,2.12982 -0.50341,-1.7813 z"
       id="path46" />
  </g>
</svg>
